<?xml version="1.0" encoding="UTF-8" standalone="no"?>
<svg width="400" height="400" viewBox="0 0 400 400" xmlns="http://www.w3.org/2000/svg">
  <style>
    .node {
      fill: #6366f1;
      stroke: #4f46e5;
      stroke-width: 2;
    }
    .edge {
      stroke: #6366f1;
      stroke-width: 4;
      stroke-linecap: round;
      stroke-opacity: 0.8;
    }
    .cross {
      stroke: #4f46e5;
      stroke-width: 4;
      stroke-linecap: round;
      stroke-opacity: 0.8;
    }
    .node-label {
      font-family: 'Arial', sans-serif;
      font-size: 18px;
      fill: #ffffff;
      text-anchor: middle;
      dominant-baseline: central;
      font-weight: bold;
    }
  </style>

  <!-- House outline edges -->
  <g>
    <!-- Base edges (square) -->
    <line class="edge" x1="100" y1="280" x2="300" y2="280" />
    <line class="edge" x1="100" y1="280" x2="100" y2="120" />
    <line class="edge" x1="300" y1="280" x2="300" y2="120" />
    <line class="edge" x1="100" y1="120" x2="300" y2="120" />
    
    <!-- Roof edges (triangle) -->
    <line class="edge" x1="100" y1="120" x2="200" y2="50" />
    <line class="edge" x1="300" y1="120" x2="200" y2="50" />
    
    <!-- Cross in the middle -->
    <line class="cross" x1="100" y1="120" x2="300" y2="280" />
    <line class="cross" x1="100" y1="280" x2="300" y2="120" />
  </g>
  
  <!-- Nodes -->
  <g>
    <circle class="node" cx="100" cy="280" r="15" />
    <circle class="node" cx="300" cy="280" r="15" />
    <circle class="node" cx="100" cy="120" r="15" />
    <circle class="node" cx="300" cy="120" r="15" />
    <circle class="node" cx="200" cy="50" r="15" />
    <circle class="node" cx="200" cy="200" r="15" /> <!-- Middle point where the crosses intersect -->
  </g>
  
  <!-- Node labels -->
  <g>
    <text class="node-label" x="100" y="280">A</text>
    <text class="node-label" x="300" y="280">B</text>
    <text class="node-label" x="100" y="120">C</text>
    <text class="node-label" x="300" y="120">D</text>
    <text class="node-label" x="200" y="50">E</text>
    <text class="node-label" x="200" y="200">F</text>
  </g>
</svg>
